# xmcd
#
# Track frame offsets: 
#        150
#        13809
#        24539
#        36008
#        47611
#        61296
#        78438
#        87274
#        96699
#        113170
#        125843
#        135039
#        149303
#        161371
#        176147
#        192973
#        205829
#        218221
#        229268
#        241971
#
# Disc length: 3450 seconds
#
# Revision: 0
# Processed by: cddbd v1.5.2PL0 Copyright (c) Steve Scherf et al.
# Submitted via: ExactAudioCopyFreeDBPlugin 1.0
#
DISCID=170d7814
DTITLE=Jack Greene - 20 All-Time Greatest Hits
DYEAR=2013
DGENRE=Country
TTITLE0=Statue Of A Fool
TTITLE1=There Goes My Everything
TTITLE2=Until My Dreams Come True
TTITLE3=All The Time
TTITLE4=You Are My Treasure
TTITLE5=What Locks The Door
TTITLE6=Love Takes Care Of Me
TTITLE7=Jack Greene and Jeannie Seely - Wish I Didn't Have To Miss You
TTITLE8=Last Letter
TTITLE9=I Need Somebody Bad
TTITLE10=Jack Greene and Jeannie Seely - Much Oblige
TTITLE11=Yours For The Taking
TTITLE12=Wanting You But Never Having You
TTITLE13=Don't You Ever Get Tired Of Hurtin' Me
TTITLE14=Honey
TTITLE15=Jack Greene and Jeannie Seely - California Turnarounds
TTITLE16=Beautiful Lady
TTITLE17=Jack Greene and Jeannie Seely - Back In The Arms Of Love
TTITLE18=Wonders Of Grace
TTITLE19=Who At My Door Is Standing
EXTD=
EXTT0=
EXTT1=
EXTT2=
EXTT3=
EXTT4=
EXTT5=
EXTT6=
EXTT7=
EXTT8=
EXTT9=
EXTT10=
EXTT11=
EXTT12=
EXTT13=
EXTT14=
EXTT15=
EXTT16=
EXTT17=
EXTT18=
EXTT19=
PLAYORDER=
